<svg xmlns="http://www.w3.org/2000/svg" viewBox="0 0 128 128"><defs><linearGradient id="flameOuter" x1="0%" x2="0%" y1="100%" y2="0%"><stop offset="0%" stop-color="#ff4500"/><stop offset="50%" stop-color="#ff6b35"/><stop offset="100%" stop-color="#ff8c00"/></linearGradient><linearGradient id="flameMiddle" x1="0%" x2="0%" y1="100%" y2="0%"><stop offset="0%" stop-color="#ff8c00"/><stop offset="50%" stop-color="orange"/><stop offset="100%" stop-color="#ffb347"/></linearGradient><linearGradient id="flameInner" x1="0%" x2="0%" y1="100%" y2="0%"><stop offset="0%" stop-color="#ffb347"/><stop offset="50%" stop-color="gold"/><stop offset="100%" stop-color="#fff5a0"/></linearGradient><filter id="glow"><feGaussianBlur result="coloredBlur" stdDeviation="2"/><feMerge><feMergeNode in="coloredBlur"/><feMergeNode in="SourceGraphic"/></feMerge></filter></defs><ellipse cx="64" cy="118" fill="#ff4500" filter="url(#glow)" opacity=".3" rx="32" ry="8"/><path fill="url(#flameOuter)" d="M64 2 C54 28 18 40 18 76 C18 94 26 108 40 118 C32 106 30 94 36 82 C42 70 52 64 52 64 C46 82 52 94 58 102 C52 90 56 78 64 66 C72 78 76 90 70 102 C76 94 82 82 76 64 C76 64 86 70 92 82 C98 94 96 106 88 118 C102 108 110 94 110 76 C110 40 74 28 64 2Z" filter="url(#glow)"/><path fill="url(#flameMiddle)" d="M64 24 C56 44 32 54 32 82 C32 98 42 110 56 118 C50 108 50 96 56 86 C62 76 64 72 64 72 C64 72 66 76 72 86 C78 96 78 108 72 118 C86 110 96 98 96 82 C96 54 72 44 64 24Z"/><path fill="url(#flameInner)" d="M64 52 C58 66 44 74 44 92 C44 106 52 116 64 122 C76 116 84 106 84 92 C84 74 70 66 64 52Z"/><ellipse cx="64" cy="102" fill="#fffbe6" opacity=".8" rx="10" ry="14"/></svg>